<svg width="31" height="32" viewBox="0 0 31 32" fill="none" xmlns="http://www.w3.org/2000/svg">
<path d="M0.376953 4C0.376953 1.79086 2.16781 0 4.37695 0H30.377V32H4.37695C2.16781 32 0.376953 30.2091 0.376953 28V4Z" fill="white"/>
<path d="M20.627 10H19.127V9.25C19.127 9.05109 19.0479 8.86032 18.9073 8.71967C18.7666 8.57902 18.5759 8.5 18.377 8.5C18.178 8.5 17.9873 8.57902 17.8466 8.71967C17.706 8.86032 17.627 9.05109 17.627 9.25V10H13.127V9.25C13.127 9.05109 13.0479 8.86032 12.9073 8.71967C12.7666 8.57902 12.5759 8.5 12.377 8.5C12.178 8.5 11.9873 8.57902 11.8466 8.71967C11.706 8.86032 11.627 9.05109 11.627 9.25V10H10.127C9.53022 10 8.95792 10.2371 8.53596 10.659C8.11401 11.081 7.87695 11.6533 7.87695 12.25V21.25C7.87695 21.8467 8.11401 22.419 8.53596 22.841C8.95792 23.2629 9.53022 23.5 10.127 23.5H20.627C21.2237 23.5 21.796 23.2629 22.2179 22.841C22.6399 22.419 22.877 21.8467 22.877 21.25V12.25C22.877 11.6533 22.6399 11.081 22.2179 10.659C21.796 10.2371 21.2237 10 20.627 10ZM21.377 21.25C21.377 21.4489 21.2979 21.6397 21.1573 21.7803C21.0166 21.921 20.8259 22 20.627 22H10.127C9.92804 22 9.73728 21.921 9.59662 21.7803C9.45597 21.6397 9.37695 21.4489 9.37695 21.25V16H21.377V21.25ZM21.377 14.5H9.37695V12.25C9.37695 12.0511 9.45597 11.8603 9.59662 11.7197C9.73728 11.579 9.92804 11.5 10.127 11.5H11.627V12.25C11.627 12.4489 11.706 12.6397 11.8466 12.7803C11.9873 12.921 12.178 13 12.377 13C12.5759 13 12.7666 12.921 12.9073 12.7803C13.0479 12.6397 13.127 12.4489 13.127 12.25V11.5H17.627V12.25C17.627 12.4489 17.706 12.6397 17.8466 12.7803C17.9873 12.921 18.178 13 18.377 13C18.5759 13 18.7666 12.921 18.9073 12.7803C19.0479 12.6397 19.127 12.4489 19.127 12.25V11.5H20.627C20.8259 11.5 21.0166 11.579 21.1573 11.7197C21.2979 11.8603 21.377 12.0511 21.377 12.25V14.5Z" fill="#C6C6C6"/>
</svg>
