<svg width="14" height="14" viewBox="0 0 14 14" fill="none" xmlns="http://www.w3.org/2000/svg">
<path d="M2.91667 8.74935C3.561 8.74935 4.08333 8.22701 4.08333 7.58268C4.08333 6.93835 3.561 6.41602 2.91667 6.41602C2.27233 6.41602 1.75 6.93835 1.75 7.58268C1.75 8.22701 2.27233 8.74935 2.91667 8.74935Z" fill="#E8BEAC"/>
<path d="M11.0827 8.74935C11.727 8.74935 12.2493 8.22701 12.2493 7.58268C12.2493 6.93835 11.727 6.41602 11.0827 6.41602C10.4384 6.41602 9.91602 6.93835 9.91602 7.58268C9.91602 8.22701 10.4384 8.74935 11.0827 8.74935Z" fill="#E8BEAC"/>
<path d="M11.375 5.54226C11.375 1.83809 2.625 3.12143 2.625 5.54226V8.45893C2.625 10.8798 4.57917 12.8339 7 12.8339C9.42083 12.8339 11.375 10.8798 11.375 8.45893V5.54226Z" fill="#E8BEAC"/>
<path d="M6.99935 0.875C4.25768 0.875 2.04102 3.09167 2.04102 5.83333V6.825L2.62435 7.29167V6.41667L8.74935 3.55833L11.3743 6.41667V7.29167L11.9577 6.825V5.83333C11.9577 3.5 10.2952 0.875 6.99935 0.875Z" fill="#FF5722"/>
<path d="M9.04232 8.16667C9.36448 8.16667 9.62565 7.9055 9.62565 7.58333C9.62565 7.26117 9.36448 7 9.04232 7C8.72015 7 8.45898 7.26117 8.45898 7.58333C8.45898 7.9055 8.72015 8.16667 9.04232 8.16667Z" fill="#784719"/>
<path d="M4.95833 8.16667C5.2805 8.16667 5.54167 7.9055 5.54167 7.58333C5.54167 7.26117 5.2805 7 4.95833 7C4.63617 7 4.375 7.26117 4.375 7.58333C4.375 7.9055 4.63617 8.16667 4.95833 8.16667Z" fill="#784719"/>
<path d="M12.5417 7.00065C12.3667 7.00065 12.25 7.11732 12.25 7.29232V5.25065C12.25 2.68398 10.15 0.583984 7.58333 0.583984H5.54167C5.36667 0.583984 5.25 0.700651 5.25 0.875651C5.25 1.05065 5.36667 1.16732 5.54167 1.16732H7.58333C9.82917 1.16732 11.6667 3.00482 11.6667 5.25065V8.16732C11.6667 8.34232 11.7833 8.45898 11.9583 8.45898C12.1333 8.45898 12.25 8.34232 12.25 8.16732V8.75065C12.25 9.88815 11.3458 10.7923 10.2083 10.7923H7C6.825 10.7923 6.70833 10.909 6.70833 11.084C6.70833 11.259 6.825 11.3757 7 11.3757H10.2083C11.6667 11.3757 12.8333 10.209 12.8333 8.75065V7.29232C12.8333 7.11732 12.7167 7.00065 12.5417 7.00065Z" fill="#757575"/>
<path d="M12.541 6.41602H12.2493C11.9285 6.41602 11.666 6.67852 11.666 6.99935V8.16602C11.666 8.48685 11.9285 8.74935 12.2493 8.74935H12.541C12.8618 8.74935 13.1243 8.48685 13.1243 8.16602V6.99935C13.1243 6.67852 12.8618 6.41602 12.541 6.41602Z" fill="#37474F"/>
<path d="M6.99935 11.6667C7.32152 11.6667 7.58268 11.4055 7.58268 11.0833C7.58268 10.7612 7.32152 10.5 6.99935 10.5C6.67718 10.5 6.41602 10.7612 6.41602 11.0833C6.41602 11.4055 6.67718 11.6667 6.99935 11.6667Z" fill="#37474F"/>
</svg>
