<svg width="20" height="20" viewBox="0 0 20 20" fill="none" xmlns="http://www.w3.org/2000/svg">
<circle cx="10" cy="10" r="10" fill="#A3EBB1"/>
<path d="M14.5 14.5V6.5H5.5V10.5H4.5V6.5C4.5 6.225 4.598 5.9895 4.794 5.7935C4.98967 5.59783 5.225 5.5 5.5 5.5H14.5C14.775 5.5 15.0105 5.59783 15.2065 5.7935C15.4022 5.9895 15.5 6.225 15.5 6.5V13.5C15.5 13.775 15.4022 14.0105 15.2065 14.2065C15.0105 14.4022 14.775 14.5 14.5 14.5ZM8.5 11C7.95 11 7.47917 10.8042 7.0875 10.4125C6.69583 10.0208 6.5 9.55 6.5 9C6.5 8.45 6.69583 7.97917 7.0875 7.5875C7.47917 7.19583 7.95 7 8.5 7C9.05 7 9.52083 7.19583 9.9125 7.5875C10.3042 7.97917 10.5 8.45 10.5 9C10.5 9.55 10.3042 10.0208 9.9125 10.4125C9.52083 10.8042 9.05 11 8.5 11ZM8.5 10C8.775 10 9.0105 9.902 9.2065 9.706C9.40217 9.51033 9.5 9.275 9.5 9C9.5 8.725 9.40217 8.4895 9.2065 8.2935C9.0105 8.09783 8.775 8 8.5 8C8.225 8 7.98967 8.09783 7.794 8.2935C7.598 8.4895 7.5 8.725 7.5 9C7.5 9.275 7.598 9.51033 7.794 9.706C7.98967 9.902 8.225 10 8.5 10ZM4.5 15V13.6C4.5 13.3167 4.573 13.0563 4.719 12.819C4.86467 12.5813 5.05833 12.4 5.3 12.275C5.81667 12.0167 6.34167 11.8228 6.875 11.6935C7.40833 11.5645 7.95 11.5 8.5 11.5C9.05 11.5 9.59167 11.5645 10.125 11.6935C10.6583 11.8228 11.1833 12.0167 11.7 12.275C11.9417 12.4 12.1353 12.5813 12.281 12.819C12.427 13.0563 12.5 13.3167 12.5 13.6V15H4.5ZM5.5 14H11.5V13.6C11.5 13.5083 11.4772 13.425 11.4315 13.35C11.3855 13.275 11.325 13.2167 11.25 13.175C10.8 12.95 10.3458 12.7812 9.8875 12.6685C9.42917 12.5562 8.96667 12.5 8.5 12.5C8.03333 12.5 7.57083 12.5562 7.1125 12.6685C6.65417 12.7812 6.2 12.95 5.75 13.175C5.675 13.2167 5.61467 13.275 5.569 13.35C5.523 13.425 5.5 13.5083 5.5 13.6V14Z" fill="white"/>
</svg>
