<svg width="14" height="14" viewBox="0 0 14 14" fill="none" xmlns="http://www.w3.org/2000/svg">
<path d="M1.75 4.66602V11.0827C1.75 12.3666 2.7965 12.8327 3.5 12.8327H12.25V11.666H3.507C3.2375 11.659 2.91667 11.5528 2.91667 11.0827C2.91667 11.0238 2.92192 10.9713 2.93067 10.9234C2.996 10.5874 3.27133 10.5052 3.507 10.4993H12.25V2.33268C12.25 1.68927 11.7267 1.16602 11.0833 1.16602H3.5C2.7965 1.16602 1.75 1.6321 1.75 2.91602V4.66602ZM3.5 2.33268H11.0833V9.33268H2.91667V2.91602C2.91667 2.44585 3.2375 2.33968 3.5 2.33268Z" fill="black"/>
<path d="M6.41602 8.16667H7.58268V6.41667H9.33268V5.25H7.58268V3.5H6.41602V5.25H4.66602V6.41667H6.41602V8.16667Z" fill="black"/>
</svg>
