<svg width="24" height="24" viewBox="0 0 24 24" fill="none" xmlns="http://www.w3.org/2000/svg">
<g clip-path="url(#clip0_183_1384)">
<path d="M21.5008 4.00008H18.8342V6.00008C18.8342 6.19268 18.7962 6.3834 18.7225 6.56135C18.6488 6.73929 18.5408 6.90097 18.4046 7.03717C18.2684 7.17336 18.1067 7.28139 17.9288 7.3551C17.7508 7.42881 17.5601 7.46674 17.3675 7.46674C17.1749 7.46674 16.9842 7.42881 16.8062 7.3551C16.6283 7.28139 16.4666 7.17336 16.3304 7.03717C16.1942 6.90097 16.0862 6.73929 16.0125 6.56135C15.9388 6.3834 15.9008 6.19268 15.9008 6.00008V4.00008H8.13416V6.00008C8.13416 6.38906 7.97963 6.76211 7.70458 7.03717C7.42953 7.31222 7.05647 7.46674 6.66749 7.46674C6.27851 7.46674 5.90545 7.31222 5.6304 7.03717C5.35535 6.76211 5.20082 6.38906 5.20082 6.00008V4.00008H2.53416C2.3755 3.99827 2.2181 4.0283 2.07126 4.08838C1.92441 4.14847 1.79111 4.23739 1.67923 4.34989C1.56735 4.4624 1.47917 4.59619 1.4199 4.74336C1.36063 4.89054 1.33147 5.0481 1.33416 5.20674V20.1267C1.33151 20.2826 1.35959 20.4374 1.41679 20.5824C1.47399 20.7274 1.55919 20.8597 1.66753 20.9718C1.77587 21.0838 1.90522 21.1734 2.0482 21.2355C2.19118 21.2975 2.34498 21.3308 2.50082 21.3334H21.5008C21.6567 21.3308 21.8105 21.2975 21.9534 21.2355C22.0964 21.1734 22.2258 21.0838 22.3341 20.9718C22.4425 20.8597 22.5277 20.7274 22.5849 20.5824C22.6421 20.4374 22.6701 20.2826 22.6675 20.1267V5.20674C22.6701 5.0509 22.6421 4.89607 22.5849 4.75108C22.5277 4.60609 22.4425 4.47379 22.3341 4.36174C22.2258 4.24968 22.0964 4.16007 21.9534 4.09802C21.8105 4.03596 21.6567 4.00268 21.5008 4.00008ZM6.66749 17.3334H5.33416V16.0001H6.66749V17.3334ZM6.66749 14.0001H5.33416V12.6667H6.66749V14.0001ZM6.66749 10.6667H5.33416V9.33341H6.66749V10.6667ZM10.6675 17.3334H9.33416V16.0001H10.6675V17.3334ZM10.6675 14.0001H9.33416V12.6667H10.6675V14.0001ZM10.6675 10.6667H9.33416V9.33341H10.6675V10.6667ZM14.6675 17.3334H13.3342V16.0001H14.6675V17.3334ZM14.6675 14.0001H13.3342V12.6667H14.6675V14.0001ZM14.6675 10.6667H13.3342V9.33341H14.6675V10.6667ZM18.6675 17.3334H17.3342V16.0001H18.6675V17.3334ZM18.6675 14.0001H17.3342V12.6667H18.6675V14.0001ZM18.6675 10.6667H17.3342V9.33341H18.6675V10.6667Z" fill="#666DFF"/>
<path d="M6.66667 6.66732C6.84348 6.66732 7.01305 6.59708 7.13807 6.47206C7.2631 6.34703 7.33333 6.17746 7.33333 6.00065V2.00065C7.33333 1.82384 7.2631 1.65427 7.13807 1.52925C7.01305 1.40422 6.84348 1.33398 6.66667 1.33398C6.48986 1.33398 6.32029 1.40422 6.19526 1.52925C6.07024 1.65427 6 1.82384 6 2.00065V6.00065C6 6.17746 6.07024 6.34703 6.19526 6.47206C6.32029 6.59708 6.48986 6.66732 6.66667 6.66732Z" fill="#666DFF"/>
<path d="M17.3327 6.66732C17.5095 6.66732 17.6791 6.59708 17.8041 6.47206C17.9291 6.34703 17.9993 6.17746 17.9993 6.00065V2.00065C17.9993 1.82384 17.9291 1.65427 17.8041 1.52925C17.6791 1.40422 17.5095 1.33398 17.3327 1.33398C17.1559 1.33398 16.9863 1.40422 16.8613 1.52925C16.7363 1.65427 16.666 1.82384 16.666 2.00065V6.00065C16.666 6.17746 16.7363 6.34703 16.8613 6.47206C16.9863 6.59708 17.1559 6.66732 17.3327 6.66732Z" fill="#666DFF"/>
</g>
<defs>
<clipPath id="clip0_183_1384">
<rect width="24" height="24" fill="white"/>
</clipPath>
</defs>
</svg>
