<svg width="50" height="50" viewBox="0 0 50 50" fill="none" xmlns="http://www.w3.org/2000/svg">
<path opacity="0.5" d="M45.8327 17.6667H4.16602V37.5417C4.16602 39.2987 4.8245 40.9838 5.9966 42.2262C7.1687 43.4687 8.75841 44.1667 10.416 44.1667H39.5827C41.2403 44.1667 42.83 43.4687 44.0021 42.2262C45.1742 40.9838 45.8327 39.2987 45.8327 37.5417V17.6667ZM14.5827 13.25C14.0301 13.25 13.5002 13.0173 13.1095 12.6032C12.7188 12.1891 12.4993 11.6274 12.4993 11.0417V2.20833C12.4993 1.62265 12.7188 1.06095 13.1095 0.646806C13.5002 0.232663 14.0301 0 14.5827 0C15.1352 0 15.6651 0.232663 16.0558 0.646806C16.4465 1.06095 16.666 1.62265 16.666 2.20833V11.0417C16.666 11.6274 16.4465 12.1891 16.0558 12.6032C15.6651 13.0173 15.1352 13.25 14.5827 13.25ZM35.416 13.25C34.8635 13.25 34.3336 13.0173 33.9429 12.6032C33.5522 12.1891 33.3327 11.6274 33.3327 11.0417V2.20833C33.3327 1.62265 33.5522 1.06095 33.9429 0.646806C34.3336 0.232663 34.8635 0 35.416 0C35.9686 0 36.4985 0.232663 36.8892 0.646806C37.2799 1.06095 37.4994 1.62265 37.4994 2.20833V11.0417C37.4994 11.6274 37.2799 12.1891 36.8892 12.6032C36.4985 13.0173 35.9686 13.25 35.416 13.25Z" fill="#1976D2"/>
<path d="M39.5827 8.33301H37.4994V15.4163C37.4994 16.0425 37.2799 16.6431 36.8892 17.0859C36.4985 17.5287 35.9686 17.7775 35.416 17.7775C34.8635 17.7775 34.3336 17.5287 33.9429 17.0859C33.5522 16.6431 33.3327 16.0425 33.3327 15.4163V8.33301H16.666V15.4163C16.666 16.0425 16.4465 16.6431 16.0558 17.0859C15.6651 17.5287 15.1352 17.7775 14.5827 17.7775C14.0301 17.7775 13.5002 17.5287 13.1095 17.0859C12.7188 16.6431 12.4993 16.0425 12.4993 15.4163V8.33301H10.416C8.75841 8.33301 7.1687 9.07929 5.9966 10.4077C4.8245 11.7361 4.16602 13.5377 4.16602 15.4163V22.4997H45.8327V15.4163C45.8327 13.5377 45.1742 11.7361 44.0021 10.4077C42.83 9.07929 41.2403 8.33301 39.5827 8.33301Z" fill="#FF3D00"/>
<path d="M18.959 8.33301H18.334V14.583C18.334 15.1355 18.2681 15.6654 18.1509 16.0561C18.0337 16.4468 17.8747 16.6663 17.709 16.6663C17.5432 16.6663 17.3843 16.4468 17.267 16.0561C17.1498 15.6654 17.084 15.1355 17.084 14.583V8.33301H12.084V14.583C12.084 15.1355 12.0181 15.6654 11.9009 16.0561C11.7837 16.4468 11.6247 16.6663 11.459 16.6663C11.2932 16.6663 11.1343 16.4468 11.017 16.0561C10.8998 15.6654 10.834 15.1355 10.834 14.583V8.33301H10.209C9.7117 8.33301 9.23479 8.99149 8.88316 10.1636C8.53153 11.3357 8.33398 12.9254 8.33398 14.583V20.833H20.834V14.583C20.834 12.9254 20.6364 11.3357 20.2848 10.1636C19.9332 8.99149 19.4563 8.33301 18.959 8.33301Z" fill="#FF3D00"/>
<path d="M39.791 8.33301H39.166V14.583C39.166 15.1355 39.1002 15.6654 38.983 16.0561C38.8657 16.4468 38.7068 16.6663 38.541 16.6663C38.3753 16.6663 38.2163 16.4468 38.0991 16.0561C37.9819 15.6654 37.916 15.1355 37.916 14.583V8.33301H32.916V14.583C32.916 15.1355 32.8502 15.6654 32.733 16.0561C32.6157 16.4468 32.4568 16.6663 32.291 16.6663C32.1253 16.6663 31.9663 16.4468 31.8491 16.0561C31.7319 15.6654 31.666 15.1355 31.666 14.583V8.33301H31.041C30.5437 8.33301 30.0668 8.99149 29.7152 10.1636C29.3636 11.3357 29.166 12.9254 29.166 14.583V20.833H41.666V14.583C41.666 12.9254 41.4685 11.3357 41.1168 10.1636C40.7652 8.99149 40.2883 8.33301 39.791 8.33301Z" fill="#FF3D00"/>
<path d="M18.6475 16.8662V11.8906H19.8682V16.8662C19.8682 17.3382 19.7673 17.7402 19.5654 18.0723C19.3636 18.4043 19.0885 18.6582 18.7402 18.834C18.3919 19.0098 17.9964 19.0977 17.5537 19.0977C17.1012 19.0977 16.6992 19.0212 16.3477 18.8682C15.9993 18.7152 15.7259 18.4808 15.5273 18.165C15.3288 17.8493 15.2295 17.4489 15.2295 16.9639H16.46C16.46 17.2438 16.5039 17.4701 16.5918 17.6426C16.6829 17.8118 16.8099 17.9355 16.9727 18.0137C17.1387 18.0885 17.3324 18.126 17.5537 18.126C17.7653 18.126 17.9525 18.0788 18.1152 17.9844C18.2812 17.8867 18.4115 17.7451 18.5059 17.5596C18.6003 17.3708 18.6475 17.1396 18.6475 16.8662ZM23.9404 12.8379L21.8164 19H20.5322L23.208 11.8906H24.0283L23.9404 12.8379ZM25.7178 19L23.5889 12.8379L23.4961 11.8906H24.3213L27.0068 19H25.7178ZM25.6152 16.3633V17.335H21.748V16.3633H25.6152ZM33.4424 11.8906V19H32.2168L29.0283 13.9072V19H27.8027V11.8906H29.0283L32.2266 16.9932V11.8906H33.4424Z" fill="white"/>
<path d="M24.2051 31.0195V32.4141C24.2051 33.082 24.1387 33.6523 24.0059 34.125C23.877 34.5938 23.6895 34.9746 23.4434 35.2676C23.1973 35.5605 22.9023 35.7754 22.5586 35.9121C22.2188 36.0488 21.8379 36.1172 21.416 36.1172C21.0801 36.1172 20.7676 36.0742 20.4785 35.9883C20.1934 35.9023 19.9355 35.7676 19.7051 35.584C19.4746 35.4004 19.2773 35.1641 19.1133 34.875C18.9531 34.582 18.8281 34.2324 18.7383 33.8262C18.6523 33.4199 18.6094 32.9492 18.6094 32.4141V31.0195C18.6094 30.3477 18.6758 29.7812 18.8086 29.3203C18.9414 28.8555 19.1309 28.4785 19.377 28.1895C19.623 27.8965 19.916 27.6836 20.2559 27.5508C20.5996 27.418 20.9824 27.3516 21.4043 27.3516C21.7441 27.3516 22.0566 27.3945 22.3418 27.4805C22.6309 27.5625 22.8887 27.6934 23.1152 27.873C23.3457 28.0527 23.541 28.2871 23.7012 28.5762C23.8652 28.8613 23.9902 29.207 24.0762 29.6133C24.1621 30.0156 24.2051 30.4844 24.2051 31.0195ZM22.793 32.6133V30.8086C22.793 30.4688 22.7734 30.1699 22.7344 29.9121C22.6953 29.6504 22.6367 29.4297 22.5586 29.25C22.4844 29.0664 22.3906 28.918 22.2773 28.8047C22.1641 28.6875 22.0352 28.6035 21.8906 28.5527C21.7461 28.498 21.584 28.4707 21.4043 28.4707C21.1855 28.4707 20.9902 28.5137 20.8184 28.5996C20.6465 28.6816 20.502 28.8145 20.3848 28.998C20.2676 29.1816 20.1777 29.4238 20.1152 29.7246C20.0566 30.0215 20.0273 30.3828 20.0273 30.8086V32.6133C20.0273 32.957 20.0469 33.2598 20.0859 33.5215C20.125 33.7832 20.1836 34.0078 20.2617 34.1953C20.3398 34.3789 20.4336 34.5312 20.543 34.6523C20.6562 34.7695 20.7852 34.8555 20.9297 34.9102C21.0781 34.9648 21.2402 34.9922 21.416 34.9922C21.6387 34.9922 21.8359 34.9492 22.0078 34.8633C22.1797 34.7773 22.3242 34.6406 22.4414 34.4531C22.5586 34.2617 22.6465 34.0137 22.7051 33.709C22.7637 33.4043 22.793 33.0391 22.793 32.6133ZM29.3203 27.4395V36H27.9082V29.1152L25.8164 29.8242V28.6582L29.1504 27.4395H29.3203Z" fill="white"/>
</svg>
