<svg width="24" height="24" viewBox="0 0 24 24" fill="none" xmlns="http://www.w3.org/2000/svg">
<path d="M16.665 17.3337C10.9777 17.3417 6.661 12.9737 6.667 7.33566C6.667 6.96699 6.96567 6.66699 7.33367 6.66699H9.09366C9.42366 6.66699 9.70433 6.90966 9.753 7.23633C9.86907 8.0197 10.0969 8.78236 10.4297 9.50099L10.4983 9.64899C10.5445 9.74859 10.5544 9.86115 10.5264 9.96728C10.4984 10.0734 10.4342 10.1664 10.345 10.2303C9.79967 10.6197 9.59167 11.403 10.0163 12.0137C10.551 12.7825 11.2183 13.4501 11.987 13.985C12.5983 14.409 13.3817 14.201 13.7703 13.6563C13.8342 13.5668 13.9273 13.5024 14.0335 13.4743C14.1398 13.4462 14.2526 13.4561 14.3523 13.5023L14.4997 13.5703C15.2183 13.9037 15.981 14.1317 16.7643 14.2477C17.091 14.2963 17.3337 14.577 17.3337 14.9077V16.667C17.3337 16.7546 17.3164 16.8413 17.2829 16.9223C17.2493 17.0032 17.2001 17.0767 17.1382 17.1386C17.0762 17.2005 17.0026 17.2496 16.9217 17.2831C16.8407 17.3166 16.7539 17.3337 16.6663 17.3337H16.665Z" fill="#666DFF"/>
<circle cx="12" cy="12" r="11.35" stroke="#666DFF" stroke-width="0.7"/>
</svg>
