<svg width="14" height="13" viewBox="0 0 14 13" fill="none" xmlns="http://www.w3.org/2000/svg">
<path d="M1.75 2.33398V0.583984H2.91667V2.33398H4.66667V3.50065H2.91667V5.25065H1.75V3.50065H0V2.33398H1.75ZM3.5 5.83398V4.08398H5.25V2.33398H9.33333L10.4008 3.50065H12.25C12.8917 3.50065 13.4167 4.02565 13.4167 4.66732V11.6673C13.4167 12.309 12.8917 12.834 12.25 12.834H2.91667C2.275 12.834 1.75 12.309 1.75 11.6673V5.83398H3.5ZM7.58333 11.084C9.19333 11.084 10.5 9.77732 10.5 8.16732C10.5 6.55732 9.19333 5.25065 7.58333 5.25065C5.97333 5.25065 4.66667 6.55732 4.66667 8.16732C4.66667 9.77732 5.97333 11.084 7.58333 11.084ZM5.71667 8.16732C5.71667 9.19982 6.55083 10.034 7.58333 10.034C8.61583 10.034 9.45 9.19982 9.45 8.16732C9.45 7.13482 8.61583 6.30065 7.58333 6.30065C6.55083 6.30065 5.71667 7.13482 5.71667 8.16732Z" fill="#F28181"/>
</svg>
