<svg width="22" height="22" viewBox="0 0 22 22" fill="none" xmlns="http://www.w3.org/2000/svg">
<g filter="url(#filter0_d_183_8100)">
<rect x="4" y="4" width="14" height="14" rx="3" fill="white"/>
<path d="M15.2 9.59961H14.9L12.8604 7.04998C12.7479 6.90947 12.6053 6.79604 12.4431 6.71808C12.2809 6.64012 12.1032 6.59963 11.9233 6.59961H7.91244C7.42175 6.59961 6.98056 6.8983 6.79831 7.35392L5.9 9.64198C5.38325 9.77586 5 10.241 5 10.7996V12.8996C5 13.0654 5.13425 13.1996 5.3 13.1996H6.2C6.2 14.1937 7.00588 14.9996 8 14.9996C8.99413 14.9996 9.8 14.1937 9.8 13.1996H12.2C12.2 14.1937 13.0059 14.9996 14 14.9996C14.9941 14.9996 15.8 14.1937 15.8 13.1996H16.7C16.8658 13.1996 17 13.0654 17 12.8996V11.3996C17 10.4055 16.1941 9.59961 15.2 9.59961ZM8 14.0996C7.50369 14.0996 7.1 13.6959 7.1 13.1996C7.1 12.7033 7.50369 12.2996 8 12.2996C8.49631 12.2996 8.9 12.7033 8.9 13.1996C8.9 13.6959 8.49631 14.0996 8 14.0996ZM9.35 9.59961H7.19244L7.91244 7.79961H9.35V9.59961ZM10.25 9.59961V7.79961H11.9233L13.3633 9.59961H10.25ZM14 14.0996C13.5037 14.0996 13.1 13.6959 13.1 13.1996C13.1 12.7033 13.5037 12.2996 14 12.2996C14.4963 12.2996 14.9 12.7033 14.9 13.1996C14.9 13.6959 14.4963 14.0996 14 14.0996Z" fill="#F28181"/>
</g>
<defs>
<filter id="filter0_d_183_8100" x="0" y="0" width="22" height="22" filterUnits="userSpaceOnUse" color-interpolation-filters="sRGB">
<feFlood flood-opacity="0" result="BackgroundImageFix"/>
<feColorMatrix in="SourceAlpha" type="matrix" values="0 0 0 0 0 0 0 0 0 0 0 0 0 0 0 0 0 0 127 0" result="hardAlpha"/>
<feOffset/>
<feGaussianBlur stdDeviation="2"/>
<feComposite in2="hardAlpha" operator="out"/>
<feColorMatrix type="matrix" values="0 0 0 0 0 0 0 0 0 0 0 0 0 0 0 0 0 0 0.15 0"/>
<feBlend mode="normal" in2="BackgroundImageFix" result="effect1_dropShadow_183_8100"/>
<feBlend mode="normal" in="SourceGraphic" in2="effect1_dropShadow_183_8100" result="shape"/>
</filter>
</defs>
</svg>
