<svg width="28" height="28" viewBox="0 0 28 28" fill="none" xmlns="http://www.w3.org/2000/svg">
<rect width="28" height="28" rx="6" fill="#E8EBFF"/>
<path d="M12.5 11H18.5V9.5H12.5V11ZM12.5 13.25H18.5V11.75H12.5V13.25ZM12.5 15.5H16.25V14H12.5V15.5ZM10.25 11C10.4625 11 10.6407 10.9282 10.7847 10.7847C10.9282 10.6407 11 10.4625 11 10.25C11 10.0375 10.9282 9.85925 10.7847 9.71525C10.6407 9.57175 10.4625 9.5 10.25 9.5C10.0375 9.5 9.85925 9.57175 9.71525 9.71525C9.57175 9.85925 9.5 10.0375 9.5 10.25C9.5 10.4625 9.57175 10.6407 9.71525 10.7847C9.85925 10.9282 10.0375 11 10.25 11ZM10.25 13.25C10.4625 13.25 10.6407 13.178 10.7847 13.034C10.9282 12.8905 11 12.7125 11 12.5C11 12.2875 10.9282 12.1092 10.7847 11.9653C10.6407 11.8217 10.4625 11.75 10.25 11.75C10.0375 11.75 9.85925 11.8217 9.71525 11.9653C9.57175 12.1092 9.5 12.2875 9.5 12.5C9.5 12.7125 9.57175 12.8905 9.71525 13.034C9.85925 13.178 10.0375 13.25 10.25 13.25ZM10.25 15.5C10.4625 15.5 10.6407 15.428 10.7847 15.284C10.9282 15.1405 11 14.9625 11 14.75C11 14.5375 10.9282 14.3592 10.7847 14.2153C10.6407 14.0717 10.4625 14 10.25 14C10.0375 14 9.85925 14.0717 9.71525 14.2153C9.57175 14.3592 9.5 14.5375 9.5 14.75C9.5 14.9625 9.57175 15.1405 9.71525 15.284C9.85925 15.428 10.0375 15.5 10.25 15.5ZM6.5 21.5V8C6.5 7.5875 6.647 7.23425 6.941 6.94025C7.2345 6.64675 7.5875 6.5 8 6.5H20C20.4125 6.5 20.7657 6.64675 21.0597 6.94025C21.3533 7.23425 21.5 7.5875 21.5 8V17C21.5 17.4125 21.3533 17.7657 21.0597 18.0597C20.7657 18.3533 20.4125 18.5 20 18.5H9.5L6.5 21.5Z" fill="#666DFF"/>
</svg>
