<svg width="24" height="24" viewBox="0 0 24 24" fill="none" xmlns="http://www.w3.org/2000/svg">
<path fill-rule="evenodd" clip-rule="evenodd" d="M5.625 6.72H4.56L3 5.145L4.065 4.095L5.1 5.115L7.215 3L8.28 4.065L5.625 6.72ZM10.485 4.5H22.485V6H10.485V4.5ZM10.485 9H22.485V10.5H10.485V9ZM22.485 13.5H10.485V15H22.485V13.5ZM10.485 18H22.485V19.5H10.485V18ZM4.56 11.22H5.625L8.28 8.565L7.215 7.515L5.1 9.63L4.065 8.595L3 9.66L4.56 11.22ZM5.625 15.735H4.56L3 14.175L4.065 13.11L5.1 14.145L7.215 12.015L8.28 13.08L5.625 15.735ZM4.56 20.25H5.625L8.28 17.595L7.215 16.53L5.1 18.66L4.065 17.625L3 18.675L4.56 20.25Z" fill="white"/>
</svg>
