<svg width="14" height="14" viewBox="0 0 14 14" fill="none" xmlns="http://www.w3.org/2000/svg">
<path d="M5.83268 2.91667H8.16602C8.16602 2.60725 8.0431 2.3105 7.82431 2.09171C7.60551 1.87292 7.30877 1.75 6.99935 1.75C6.68993 1.75 6.39318 1.87292 6.17439 2.09171C5.9556 2.3105 5.83268 2.60725 5.83268 2.91667ZM4.95768 2.91667C4.95768 2.64855 5.01049 2.38306 5.1131 2.13535C5.2157 1.88765 5.36609 1.66258 5.55567 1.47299C5.74526 1.2834 5.97033 1.13302 6.21804 1.03041C6.46574 0.927809 6.73123 0.875 6.99935 0.875C7.26746 0.875 7.53295 0.927809 7.78066 1.03041C8.02837 1.13302 8.25344 1.2834 8.44303 1.47299C8.63261 1.66258 8.783 1.88765 8.8856 2.13535C8.98821 2.38306 9.04102 2.64855 9.04102 2.91667H12.3952C12.5112 2.91667 12.6225 2.96276 12.7045 3.04481C12.7866 3.12685 12.8327 3.23813 12.8327 3.35417C12.8327 3.4702 12.7866 3.58148 12.7045 3.66353C12.6225 3.74557 12.5112 3.79167 12.3952 3.79167H11.6252L10.9427 10.8564C10.8903 11.3977 10.6382 11.9001 10.2355 12.2656C9.83278 12.6312 9.30836 12.8335 8.76452 12.8333H5.23418C4.69044 12.8334 4.16616 12.6309 3.76357 12.2655C3.36098 11.9 3.10894 11.3976 3.0566 10.8564L2.37352 3.79167H1.60352C1.48748 3.79167 1.3762 3.74557 1.29416 3.66353C1.21211 3.58148 1.16602 3.4702 1.16602 3.35417C1.16602 3.23813 1.21211 3.12685 1.29416 3.04481C1.3762 2.96276 1.48748 2.91667 1.60352 2.91667H4.95768ZM6.12435 5.6875C6.12435 5.57147 6.07826 5.46019 5.99621 5.37814C5.91416 5.29609 5.80288 5.25 5.68685 5.25C5.57082 5.25 5.45954 5.29609 5.37749 5.37814C5.29544 5.46019 5.24935 5.57147 5.24935 5.6875V10.0625C5.24935 10.1785 5.29544 10.2898 5.37749 10.3719C5.45954 10.4539 5.57082 10.5 5.68685 10.5C5.80288 10.5 5.91416 10.4539 5.99621 10.3719C6.07826 10.2898 6.12435 10.1785 6.12435 10.0625V5.6875ZM8.31185 5.25C8.42788 5.25 8.53916 5.29609 8.62121 5.37814C8.70326 5.46019 8.74935 5.57147 8.74935 5.6875V10.0625C8.74935 10.1785 8.70326 10.2898 8.62121 10.3719C8.53916 10.4539 8.42788 10.5 8.31185 10.5C8.19582 10.5 8.08454 10.4539 8.00249 10.3719C7.92044 10.2898 7.87435 10.1785 7.87435 10.0625V5.6875C7.87435 5.57147 7.92044 5.46019 8.00249 5.37814C8.08454 5.29609 8.19582 5.25 8.31185 5.25ZM3.92752 10.7724C3.95898 11.0971 4.11024 11.3985 4.35181 11.6177C4.59339 11.837 4.90795 11.9584 5.23418 11.9583H8.76452C9.09075 11.9584 9.40531 11.837 9.64688 11.6177C9.88846 11.3985 10.0397 11.0971 10.0712 10.7724L10.7467 3.79167H3.25202L3.92752 10.7724Z" fill="black"/>
</svg>
