<svg width="14" height="11" viewBox="0 0 14 11" fill="none" xmlns="http://www.w3.org/2000/svg">
<g clip-path="url(#clip0_183_1808)">
<path d="M6.9375 8.25L7.84375 7.34375L6.65625 6.15625L5.75 7.0625V7.5H6.5V8.25H6.9375ZM10.375 2.625C10.2917 2.54167 10.2057 2.54427 10.1172 2.63281L7.38281 5.36719C7.29427 5.45573 7.29167 5.54167 7.375 5.625C7.45833 5.70833 7.54427 5.70573 7.63281 5.61719L10.3672 2.88281C10.4557 2.79427 10.4583 2.70833 10.375 2.625ZM11 7.26562V8.75C11 9.36979 10.7799 9.89974 10.3398 10.3398C9.89974 10.7799 9.36979 11 8.75 11H2.25C1.63021 11 1.10026 10.7799 0.660156 10.3398C0.220052 9.89974 0 9.36979 0 8.75V2.25C0 1.63021 0.220052 1.10026 0.660156 0.660156C1.10026 0.220052 1.63021 0 2.25 0H8.75C9.07812 0 9.38281 0.0651042 9.66406 0.195312C9.74219 0.231771 9.78906 0.291667 9.80469 0.375C9.82031 0.463542 9.79688 0.539062 9.73438 0.601562L9.35156 0.984375C9.27865 1.05729 9.19531 1.07812 9.10156 1.04688C8.98177 1.01562 8.86458 1 8.75 1H2.25C1.90625 1 1.61198 1.1224 1.36719 1.36719C1.1224 1.61198 1 1.90625 1 2.25V8.75C1 9.09375 1.1224 9.38802 1.36719 9.63281C1.61198 9.8776 1.90625 10 2.25 10H8.75C9.09375 10 9.38802 9.8776 9.63281 9.63281C9.8776 9.38802 10 9.09375 10 8.75V7.76562C10 7.69792 10.0234 7.64062 10.0703 7.59375L10.5703 7.09375C10.6484 7.01562 10.7396 6.9974 10.8438 7.03906C10.9479 7.08073 11 7.15625 11 7.26562ZM10.25 1.5L12.5 3.75L7.25 9H5V6.75L10.25 1.5ZM13.7188 2.53125L13 3.25L10.75 1L11.4688 0.28125C11.6146 0.135417 11.7917 0.0625 12 0.0625C12.2083 0.0625 12.3854 0.135417 12.5312 0.28125L13.7188 1.46875C13.8646 1.61458 13.9375 1.79167 13.9375 2C13.9375 2.20833 13.8646 2.38542 13.7188 2.53125Z" fill="black"/>
</g>
<defs>
<clipPath id="clip0_183_1808">
<rect width="14" height="11" fill="white"/>
</clipPath>
</defs>
</svg>
