<svg width="24" height="22" viewBox="0 0 24 22" fill="none" xmlns="http://www.w3.org/2000/svg">
<path d="M0.162282 0.954167C0.437282 0.370833 1.02062 0 1.66645 0H19.6664C20.3123 0 20.8956 0.370833 21.1706 0.954167C21.4456 1.5375 21.3623 2.225 20.9539 2.725L16.5164 8.15C13.1748 8.8375 10.6664 11.7917 10.6664 15.3333C10.6664 16.475 10.9289 17.5583 11.3956 18.5208C11.3289 18.4875 11.2623 18.4458 11.1998 18.4L8.53311 16.4C8.19561 16.15 7.99978 15.7542 7.99978 15.3333V12.0375L0.374782 2.72083C-0.0293844 2.225 -0.116884 1.53333 0.162282 0.954167ZM17.9998 21.3333C14.6873 21.3333 11.9998 18.6458 11.9998 15.3333C11.9998 12.0208 14.6873 9.33333 17.9998 9.33333C21.3123 9.33333 23.9998 12.0208 23.9998 15.3333C23.9998 18.6458 21.3123 21.3333 17.9998 21.3333ZM20.4706 13.8042C20.7289 13.5458 20.7289 13.1208 20.4706 12.8625C20.2123 12.6042 19.7873 12.6042 19.5289 12.8625L17.9998 14.3917L16.4706 12.8625C16.2123 12.6042 15.7873 12.6042 15.5289 12.8625C15.2706 13.1208 15.2706 13.5458 15.5289 13.8042L17.0581 15.3333L15.5289 16.8625C15.2706 17.1208 15.2706 17.5458 15.5289 17.8042C15.7873 18.0625 16.2123 18.0625 16.4706 17.8042L17.9998 16.275L19.5289 17.8042C19.7873 18.0625 20.2123 18.0625 20.4706 17.8042C20.7289 17.5458 20.7289 17.1208 20.4706 16.8625L18.9414 15.3333L20.4706 13.8042Z" fill="#C6C6C6"/>
</svg>
