<svg width="10" height="10" viewBox="0 0 10 10" fill="none" xmlns="http://www.w3.org/2000/svg">
<path d="M4.17077 0C3.55038 0 3.11308 0.440825 3.11308 1.06153C3.11308 1.74477 3.65077 2.18907 4.17077 2.61754C4.34077 2.75766 4.50692 2.89856 4.66346 3.0518H1.92308C1.41692 3.0518 0.996539 3.3803 0.841154 3.83579C0.841154 3.83579 0.919615 4.59585 2.11538 4.59585C3.22692 4.59585 3.26808 4.02841 3.26923 4.00486C3.27181 3.95561 3.29326 3.90927 3.3291 3.87553C3.36495 3.84178 3.4124 3.82326 3.46154 3.82382C3.51202 3.82547 3.55999 3.84633 3.59571 3.88217C3.63143 3.91802 3.65221 3.96616 3.65385 4.01683C3.65538 4.03652 3.70962 4.59585 5 4.59585C6.29038 4.59585 6.34423 4.02841 6.34615 4.00486C6.35038 3.95408 6.37398 3.9069 6.41203 3.87317C6.45009 3.83944 6.49965 3.82176 6.55038 3.82382C6.59963 3.82593 6.64609 3.84732 6.67981 3.8834C6.71352 3.91948 6.73182 3.96738 6.73077 4.01683C6.73154 4.03729 6.76538 4.59585 7.88462 4.59585C9.11654 4.59585 9.15885 3.83579 9.15885 3.83579C9.00346 3.38068 8.58231 3.0518 8.07692 3.0518H5.33654C5.49444 2.89997 5.65882 2.75508 5.82923 2.61754C6.34885 2.18907 6.88692 1.74438 6.88692 1.06153C6.88692 0.440825 6.45 0 5.82923 0C5.47154 0 5.16885 0.257083 5 0.434262C4.83192 0.256697 4.52808 0 4.17077 0ZM3.47308 4.48738C3.28538 4.73288 2.90077 4.98186 2.11538 4.98186C1.34423 4.98186 0.961154 4.7406 0.769231 4.49934V6.13989H9.23077V4.49934C9.03885 4.73867 8.65462 4.98186 7.88462 4.98186C7.09615 4.98186 6.71385 4.73211 6.52654 4.48738C6.31346 4.73172 5.87885 4.98186 5 4.98186C4.11808 4.98186 3.68538 4.73288 3.47346 4.48738H3.47308ZM1.15385 6.5259C0.647692 6.5259 0.227308 6.8544 0.0719231 7.30989C0.0723077 7.30989 0.150385 8.06995 1.34615 8.06995C2.45769 8.06995 2.88346 7.50251 2.88462 7.47896C2.88719 7.42971 2.90865 7.38337 2.94449 7.34962C2.98033 7.31588 3.02778 7.29736 3.07692 7.29792C3.12741 7.29956 3.17538 7.32043 3.21109 7.35627C3.24681 7.39212 3.2676 7.44026 3.26923 7.49093C3.27077 7.51062 3.70962 8.06995 5 8.06995C6.29038 8.06995 6.72885 7.50251 6.73077 7.47896C6.73499 7.42818 6.75859 7.381 6.79665 7.34727C6.8347 7.31353 6.88427 7.29586 6.935 7.29792C6.98424 7.30003 7.0307 7.32142 7.06442 7.3575C7.09814 7.39357 7.11644 7.44147 7.11538 7.49093C7.11615 7.51139 7.53462 8.06995 8.65385 8.06995C9.88577 8.06995 9.92808 7.30989 9.92808 7.30989C9.77269 6.85478 9.35154 6.5259 8.84615 6.5259H1.15385ZM3.08885 7.96148C2.90077 8.20698 2.13154 8.45596 1.34615 8.45596C0.575 8.45596 0.191923 8.2147 0 7.97344V9.22798C0 9.86721 0.516923 10 1.15385 10H8.84615C9.48308 10 10 9.86721 10 9.22798V7.97344C9.80808 8.21277 9.42385 8.45596 8.65385 8.45596C7.86538 8.45596 7.09846 8.20621 6.91115 7.96148C6.69808 8.20582 5.87885 8.45596 5 8.45596C4.11808 8.45596 3.30077 8.20698 3.08885 7.96148Z" fill="#FC97B2"/>
</svg>
