<svg width="50" height="53" viewBox="0 0 50 53" fill="none" xmlns="http://www.w3.org/2000/svg">
<rect width="50" height="53" fill="#E5E5E5"/>
<g clip-path="url(#clip0_0_1)">
<rect width="375" height="812" transform="translate(-43 -149)" fill="white"/>
<g filter="url(#filter0_d_0_1)">
<rect width="375" height="82" transform="translate(-43 -11)" fill="#EFF0F5"/>
<path opacity="0.5" d="M50 21.2H0V45.05C0 47.1585 0.790177 49.1806 2.1967 50.6715C3.60322 52.1624 5.51088 53 7.5 53H42.5C44.4891 53 46.3968 52.1624 47.8033 50.6715C49.2098 49.1806 50 47.1585 50 45.05V21.2ZM12.5 15.9C11.837 15.9 11.2011 15.6208 10.7322 15.1238C10.2634 14.6269 10 13.9528 10 13.25V2.65C10 1.94718 10.2634 1.27314 10.7322 0.776167C11.2011 0.279196 11.837 0 12.5 0C13.163 0 13.7989 0.279196 14.2678 0.776167C14.7366 1.27314 15 1.94718 15 2.65V13.25C15 13.9528 14.7366 14.6269 14.2678 15.1238C13.7989 15.6208 13.163 15.9 12.5 15.9ZM37.5 15.9C36.837 15.9 36.2011 15.6208 35.7322 15.1238C35.2634 14.6269 35 13.9528 35 13.25V2.65C35 1.94718 35.2634 1.27314 35.7322 0.776167C36.2011 0.279196 36.837 0 37.5 0C38.163 0 38.7989 0.279196 39.2678 0.776167C39.7366 1.27314 40 1.94718 40 2.65V13.25C40 13.9528 39.7366 14.6269 39.2678 15.1238C38.7989 15.6208 38.163 15.9 37.5 15.9Z" fill="#1976D2"/>
<path d="M42.5 10H40V18.5C40 19.2514 39.7366 19.9721 39.2678 20.5035C38.7989 21.0348 38.163 21.3333 37.5 21.3333C36.837 21.3333 36.2011 21.0348 35.7322 20.5035C35.2634 19.9721 35 19.2514 35 18.5V10H15V18.5C15 19.2514 14.7366 19.9721 14.2678 20.5035C13.7989 21.0348 13.163 21.3333 12.5 21.3333C11.837 21.3333 11.2011 21.0348 10.7322 20.5035C10.2634 19.9721 10 19.2514 10 18.5V10H7.5C5.51088 10 3.60322 10.8955 2.1967 12.4896C0.790177 14.0837 0 16.2457 0 18.5V27H50V18.5C50 16.2457 49.2098 14.0837 47.8033 12.4896C46.3968 10.8955 44.4891 10 42.5 10V10Z" fill="#FF3D00"/>
<path d="M17.75 10H17V17.5C17 18.163 16.921 18.7989 16.7803 19.2678C16.6397 19.7366 16.4489 20 16.25 20C16.0511 20 15.8603 19.7366 15.7197 19.2678C15.579 18.7989 15.5 18.163 15.5 17.5V10H9.5V17.5C9.5 18.163 9.42098 18.7989 9.28033 19.2678C9.13968 19.7366 8.94891 20 8.75 20C8.55109 20 8.36032 19.7366 8.21967 19.2678C8.07902 18.7989 8 18.163 8 17.5V10H7.25C6.65326 10 6.08097 10.7902 5.65901 12.1967C5.23705 13.6032 5 15.5109 5 17.5V25H20V17.5C20 15.5109 19.7629 13.6032 19.341 12.1967C18.919 10.7902 18.3467 10 17.75 10V10Z" fill="#FF3D00"/>
<path d="M42.75 10H42V17.5C42 18.163 41.921 18.7989 41.7803 19.2678C41.6397 19.7366 41.4489 20 41.25 20C41.0511 20 40.8603 19.7366 40.7197 19.2678C40.579 18.7989 40.5 18.163 40.5 17.5V10H34.5V17.5C34.5 18.163 34.421 18.7989 34.2803 19.2678C34.1397 19.7366 33.9489 20 33.75 20C33.5511 20 33.3603 19.7366 33.2197 19.2678C33.079 18.7989 33 18.163 33 17.5V10H32.25C31.6533 10 31.081 10.7902 30.659 12.1967C30.2371 13.6032 30 15.5109 30 17.5V25H45V17.5C45 15.5109 44.7629 13.6032 44.341 12.1967C43.919 10.7902 43.3467 10 42.75 10V10Z" fill="#FF3D00"/>
<path d="M17.377 20.4395V14.4688H18.8418V20.4395C18.8418 21.0059 18.7207 21.4883 18.4785 21.8867C18.2363 22.2852 17.9062 22.5898 17.4883 22.8008C17.0703 23.0117 16.5957 23.1172 16.0645 23.1172C15.5215 23.1172 15.0391 23.0254 14.6172 22.8418C14.1992 22.6582 13.8711 22.377 13.6328 21.998C13.3945 21.6191 13.2754 21.1387 13.2754 20.5566H14.752C14.752 20.8926 14.8047 21.1641 14.9102 21.3711C15.0195 21.5742 15.1719 21.7227 15.3672 21.8164C15.5664 21.9062 15.7988 21.9512 16.0645 21.9512C16.3184 21.9512 16.543 21.8945 16.7383 21.7812C16.9375 21.6641 17.0938 21.4941 17.207 21.2715C17.3203 21.0449 17.377 20.7676 17.377 20.4395ZM23.7285 15.6055L21.1797 23H19.6387L22.8496 14.4688H23.834L23.7285 15.6055ZM25.8613 23L23.3066 15.6055L23.1953 14.4688H24.1855L27.4082 23H25.8613ZM25.7383 19.8359V21.002H21.0977V19.8359H25.7383ZM35.1309 14.4688V23H33.6602L29.834 16.8887V23H28.3633V14.4688H29.834L33.6719 20.5918V14.4688H35.1309Z" fill="white"/>
<path d="M24.2393 38.1895V39.8164C24.2393 40.5957 24.1618 41.2611 24.0068 41.8125C23.8564 42.3594 23.6377 42.8037 23.3506 43.1455C23.0635 43.4873 22.7194 43.738 22.3184 43.8975C21.9219 44.057 21.4775 44.1367 20.9854 44.1367C20.5934 44.1367 20.2288 44.0866 19.8916 43.9863C19.5589 43.8861 19.2581 43.7288 18.9893 43.5146C18.7204 43.3005 18.4902 43.0247 18.2988 42.6875C18.112 42.3457 17.9661 41.9378 17.8613 41.4639C17.7611 40.9899 17.7109 40.4408 17.7109 39.8164V38.1895C17.7109 37.4056 17.7884 36.7448 17.9434 36.207C18.0983 35.6647 18.3193 35.2249 18.6064 34.8877C18.8936 34.5459 19.2354 34.2975 19.6318 34.1426C20.0329 33.9876 20.4795 33.9102 20.9717 33.9102C21.3682 33.9102 21.7327 33.9603 22.0654 34.0605C22.4027 34.1562 22.7035 34.3089 22.9678 34.5186C23.2367 34.7282 23.4645 35.0016 23.6514 35.3389C23.8428 35.6715 23.9886 36.0749 24.0889 36.5488C24.1891 37.0182 24.2393 37.5651 24.2393 38.1895ZM22.5918 40.0488V37.9434C22.5918 37.5469 22.569 37.1982 22.5234 36.8975C22.4779 36.5921 22.4095 36.3346 22.3184 36.125C22.2318 35.9108 22.1224 35.7376 21.9902 35.6055C21.8581 35.4688 21.7077 35.3708 21.5391 35.3115C21.3704 35.2477 21.1813 35.2158 20.9717 35.2158C20.7165 35.2158 20.4886 35.266 20.2881 35.3662C20.0876 35.4619 19.9189 35.6169 19.7822 35.8311C19.6455 36.0452 19.5407 36.3278 19.4678 36.6787C19.3994 37.0251 19.3652 37.4466 19.3652 37.9434V40.0488C19.3652 40.4499 19.388 40.8031 19.4336 41.1084C19.4792 41.4137 19.5475 41.6758 19.6387 41.8945C19.7298 42.1087 19.8392 42.2865 19.9668 42.4277C20.099 42.5645 20.2493 42.6647 20.418 42.7285C20.5911 42.7923 20.7803 42.8242 20.9854 42.8242C21.2451 42.8242 21.4753 42.7741 21.6758 42.6738C21.8763 42.5736 22.0449 42.4141 22.1816 42.1953C22.3184 41.972 22.4209 41.6826 22.4893 41.3271C22.5576 40.9717 22.5918 40.5456 22.5918 40.0488ZM30.207 34.0127V44H28.5596V35.9678L26.1191 36.7949V35.4346L30.0088 34.0127H30.207Z" fill="white"/>
</g>
</g>
<defs>
<filter id="filter0_d_0_1" x="-49" y="-17" width="387" height="94" filterUnits="userSpaceOnUse" color-interpolation-filters="sRGB">
<feFlood flood-opacity="0" result="BackgroundImageFix"/>
<feColorMatrix in="SourceAlpha" type="matrix" values="0 0 0 0 0 0 0 0 0 0 0 0 0 0 0 0 0 0 127 0" result="hardAlpha"/>
<feOffset/>
<feGaussianBlur stdDeviation="3"/>
<feComposite in2="hardAlpha" operator="out"/>
<feColorMatrix type="matrix" values="0 0 0 0 0 0 0 0 0 0 0 0 0 0 0 0 0 0 0.25 0"/>
<feBlend mode="normal" in2="BackgroundImageFix" result="effect1_dropShadow_0_1"/>
<feBlend mode="normal" in="SourceGraphic" in2="effect1_dropShadow_0_1" result="shape"/>
</filter>
<clipPath id="clip0_0_1">
<rect width="375" height="812" fill="white" transform="translate(-43 -149)"/>
</clipPath>
</defs>
</svg>
