<svg width="20" height="20" viewBox="0 0 20 20" fill="none" xmlns="http://www.w3.org/2000/svg">
<path d="M10.0002 1.38867C5.10022 1.38867 1.11133 4.87756 1.11133 9.16645C1.11133 13.4553 5.10022 16.9442 10.0002 16.9442C10.917 16.9438 11.8293 16.8167 12.7113 16.5664L15.7836 18.522C15.9074 18.6014 16.0576 18.6284 16.2013 18.5971C16.345 18.5659 16.4705 18.4789 16.5502 18.3553C16.6179 18.269 16.6585 18.1647 16.6669 18.0553V14.3164C17.362 13.6496 17.9167 12.8504 18.2984 11.966C18.68 11.0815 18.8809 10.1297 18.8891 9.16645C18.8891 4.87756 14.9002 1.38867 10.0002 1.38867ZM16.578 9.99978H11.9502C11.919 10.0001 11.8882 10.0066 11.8596 10.019C11.8309 10.0314 11.8051 10.0494 11.7836 10.072L8.83911 13.2053C8.81883 13.228 8.794 13.2462 8.76624 13.2586C8.73848 13.271 8.70842 13.2775 8.678 13.2776H7.32799C7.29001 13.2773 7.2527 13.2675 7.21946 13.2491C7.18622 13.2307 7.15811 13.2043 7.13768 13.1723C7.11725 13.1403 7.10516 13.1036 7.10249 13.0658C7.09983 13.0279 7.10669 12.9899 7.12244 12.9553L8.49466 9.99978H4.14466C4.10351 9.99886 4.06333 9.98707 4.0282 9.96561C3.99308 9.94414 3.96425 9.91376 3.94466 9.87756L2.44466 7.09978H3.46688C3.50798 7.10041 3.54849 7.10963 3.5858 7.12685C3.62312 7.14407 3.65641 7.16892 3.68355 7.19978L4.55022 8.13867C4.57202 8.16572 4.60016 8.18697 4.63214 8.20054C4.66412 8.2141 4.69895 8.21957 4.73355 8.21645L8.16688 8.00534L7.05577 6.03312H8.66133C8.72422 6.03208 8.78538 6.05378 8.83355 6.09423L10.9058 7.77756L14.6224 7.58312C14.805 7.57056 14.9882 7.5951 15.161 7.65526C15.3338 7.71541 15.4927 7.80993 15.628 7.93312L17.0002 9.172C17.0609 9.24875 17.0983 9.34131 17.108 9.43869C17.1176 9.53608 17.0991 9.63418 17.0547 9.72135C17.0102 9.80853 16.9417 9.8811 16.8572 9.93046C16.7727 9.97982 16.6758 10.0039 16.578 9.99978Z" fill="#F57272"/>
</svg>
