<svg width="14" height="14" viewBox="0 0 14 14" fill="none" xmlns="http://www.w3.org/2000/svg">
<path d="M5.66667 7.00033C6.33808 7.00033 6.83333 6.50508 6.83333 5.83366C6.83333 5.16224 6.33808 4.66699 5.66667 4.66699C4.99525 4.66699 4.5 5.16224 4.5 5.83366C4.5 6.50508 4.99467 7.00033 5.66667 7.00033Z" fill="#AEAEAE"/>
<path d="M11.666 2.33301H2.33268C1.68927 2.33301 1.16602 2.82359 1.16602 3.42676V10.5726C1.16602 11.1758 1.68927 11.6663 2.33268 11.6663H11.666C12.3094 11.6663 12.8327 11.1758 12.8327 10.5726V3.42676C12.8327 2.82359 12.3094 2.33301 11.666 2.33301ZM11.666 10.4997L2.33268 10.4933V3.49967L11.666 3.50609V10.4997Z" fill="#AEAEAE"/>
<path d="M8.16667 4.66699H10.5V5.83366H8.16667V4.66699ZM8.75 7.00033H10.5V8.16699H8.75V7.00033ZM7.83417 8.47966C7.83417 7.67816 6.8565 6.85449 5.66708 6.85449C4.47767 6.85449 3.5 7.67816 3.5 8.47966V8.75033H7.83417V8.47966Z" fill="#AEAEAE"/>
</svg>
