<svg width="16" height="16" viewBox="0 0 16 16" fill="none" xmlns="http://www.w3.org/2000/svg">
<path d="M8 0C3.58172 0 0 3.58172 0 8C0 12.4183 3.58172 16 8 16C12.4183 16 16 12.4183 16 8C16 3.58172 12.4183 0 8 0ZM8 2.70996C10.2025 2.70996 11.9883 4.49579 11.9883 6.69824C11.9883 7.3654 11.8055 8.24612 11.4297 8.74412L8 13.29L4.57031 8.74415C4.15659 8.19584 4.01171 7.43483 4.01171 6.69827C4.01172 4.49579 5.79753 2.70996 8 2.70996ZM8 5.02051C7.07329 5.02051 6.32227 5.77153 6.32227 6.69824C6.32227 7.62495 7.07329 8.37597 8 8.37597C8.92671 8.37597 9.67773 7.62495 9.67773 6.69824C9.67773 5.77153 8.92671 5.02051 8 5.02051Z" fill="#9D9A9A"/>
</svg>
