<svg width="16" height="16" viewBox="0 0 16 16" fill="none" xmlns="http://www.w3.org/2000/svg">
<path d="M4 3C3.46957 3 2.96086 3.21071 2.58579 3.58579C2.21071 3.96086 2 4.46957 2 5V5.201L8 8.432L14 5.202V5C14 4.46957 13.7893 3.96086 13.4142 3.58579C13.0391 3.21071 12.5304 3 12 3H4ZM14 6.337L8.237 9.44C8.16416 9.47921 8.08273 9.49974 8 9.49974C7.91727 9.49974 7.83584 9.47921 7.763 9.44L2 6.337V11C2 11.5304 2.21071 12.0391 2.58579 12.4142C2.96086 12.7893 3.46957 13 4 13H12C12.5304 13 13.0391 12.7893 13.4142 12.4142C13.7893 12.0391 14 11.5304 14 11V6.337Z" fill="#AEAEAE"/>
</svg>
