<svg width="24" height="24" viewBox="0 0 24 24" fill="none" xmlns="http://www.w3.org/2000/svg">
<path d="M8 7C7.46957 7 6.96086 7.21071 6.58579 7.58579C6.21071 7.96086 6 8.46957 6 9V9.201L12 12.432L18 9.202V9C18 8.46957 17.7893 7.96086 17.4142 7.58579C17.0391 7.21071 16.5304 7 16 7H8ZM18 10.337L12.237 13.44C12.1642 13.4792 12.0827 13.4997 12 13.4997C11.9173 13.4997 11.8358 13.4792 11.763 13.44L6 10.337V15C6 15.5304 6.21071 16.0391 6.58579 16.4142C6.96086 16.7893 7.46957 17 8 17H16C16.5304 17 17.0391 16.7893 17.4142 16.4142C17.7893 16.0391 18 15.5304 18 15V10.337Z" fill="#666DFF"/>
<circle cx="12" cy="12" r="11.35" stroke="#666DFF" stroke-width="0.7"/>
</svg>
