<svg width="5" height="10" viewBox="0 0 5 10" fill="none" xmlns="http://www.w3.org/2000/svg">
<path d="M0.932689 0.916586C1.01984 0.91629 1.10594 0.935523 1.18468 0.972874C1.26342 1.01022 1.33279 1.06474 1.38769 1.13242L4.20519 4.63242C4.29099 4.7368 4.33789 4.86772 4.33789 5.00284C4.33789 5.13795 4.29099 5.26888 4.20519 5.37325L1.28852 8.87325C1.18951 8.99238 1.04723 9.06729 0.892978 9.08152C0.73873 9.09574 0.585149 9.0481 0.466023 8.94909C0.346896 8.85007 0.271983 8.70779 0.257761 8.55354C0.243539 8.39929 0.291175 8.24571 0.390189 8.12659L2.99769 4.99992L0.477689 1.87325C0.406357 1.78763 0.361046 1.68336 0.347116 1.57279C0.333186 1.46222 0.351221 1.34998 0.399087 1.24933C0.446953 1.14869 0.522646 1.06387 0.61721 1.0049C0.711775 0.945931 0.821252 0.915284 0.932689 0.916586Z" fill="#AEAEAE"/>
</svg>
