<svg width="22" height="22" viewBox="0 0 22 22" fill="none" xmlns="http://www.w3.org/2000/svg">
<path d="M4.23288 3.461C4.52822 2.59706 5.08634 1.84711 5.82911 1.31616C6.57188 0.785204 7.4621 0.499833 8.37513 0.5H17.1251C18.2855 0.5 19.3983 0.960936 20.2187 1.78141C21.0392 2.60188 21.5001 3.71468 21.5001 4.875V13.625C21.5001 15.5465 20.2611 17.1775 18.5391 17.7673V18.4043C18.5391 18.9905 18.3344 19.7395 17.8531 20.3573C17.3474 21.0083 16.5441 21.5 15.4434 21.5H5.34588C4.70814 21.5044 4.07589 21.382 3.48586 21.14C2.89584 20.8979 2.35981 20.541 1.90893 20.09C1.45806 19.6389 1.10133 19.1028 0.859475 18.5126C0.617624 17.9225 0.495475 17.2902 0.500128 16.6525V6.56025C0.500128 5.5995 0.844878 4.79975 1.45563 4.245C2.05063 3.70425 2.82938 3.46275 3.59588 3.46275H4.23288V3.461ZM4.00013 5.211H3.59763C3.24595 5.19694 2.90162 5.31421 2.63163 5.54C2.42513 5.72725 2.25013 6.037 2.25013 6.5585V16.6543C2.25013 18.392 3.60813 19.7518 5.34763 19.7518H15.4434C15.9666 19.7518 16.2729 19.54 16.4724 19.2828C16.6651 19.0292 16.7751 18.7225 16.7874 18.4043V18H8.37513C7.21481 18 6.10201 17.5391 5.28154 16.7186C4.46106 15.8981 4.00013 14.7853 4.00013 13.625V5.211ZM11.0001 7.5H13.2629L8.63063 12.1305C8.54928 12.2119 8.48474 12.3084 8.44071 12.4147C8.39668 12.521 8.37402 12.6349 8.37402 12.75C8.37402 12.8651 8.39668 12.979 8.44071 13.0853C8.48474 13.1916 8.54928 13.2881 8.63063 13.3695C8.71198 13.4509 8.80856 13.5154 8.91486 13.5594C9.02115 13.6034 9.13508 13.6261 9.25013 13.6261C9.36518 13.6261 9.47911 13.6034 9.5854 13.5594C9.69169 13.5154 9.78828 13.4509 9.86963 13.3695L14.5001 8.73725V11C14.5001 11.2321 14.5923 11.4546 14.7564 11.6187C14.9205 11.7828 15.1431 11.875 15.3751 11.875C15.6072 11.875 15.8298 11.7828 15.9938 11.6187C16.1579 11.4546 16.2501 11.2321 16.2501 11V6.625C16.2501 6.39294 16.1579 6.17038 15.9938 6.00628C15.8298 5.84219 15.6072 5.75 15.3751 5.75H11.0001C10.7681 5.75 10.5455 5.84219 10.3814 6.00628C10.2173 6.17038 10.1251 6.39294 10.1251 6.625C10.1251 6.85706 10.2173 7.07962 10.3814 7.24372C10.5455 7.40781 10.7681 7.5 11.0001 7.5Z" fill="#666DFF"/>
</svg>
