<svg width="14" height="14" viewBox="0 0 14 14" fill="none" xmlns="http://www.w3.org/2000/svg">
<path d="M11.0822 11.6663C6.10582 11.6733 2.32874 7.85134 2.33399 2.91809C2.33399 2.59551 2.59532 2.33301 2.91732 2.33301H4.45732C4.74607 2.33301 4.99166 2.54534 5.03424 2.83117C5.1358 3.51662 5.33519 4.18395 5.62632 4.81276L5.68641 4.94226C5.72677 5.0294 5.73545 5.1279 5.71096 5.22076C5.68646 5.31362 5.63033 5.39502 5.55224 5.45092C5.07507 5.79159 4.89307 6.47701 5.26466 7.01134C5.73248 7.68412 6.31637 8.26821 6.98899 8.73626C7.52391 9.10726 8.20932 8.92526 8.54941 8.44867C8.60525 8.37035 8.68672 8.31401 8.77971 8.2894C8.87271 8.26479 8.97138 8.27347 9.05866 8.31392L9.18757 8.37342C9.81641 8.66509 10.4837 8.86459 11.1692 8.96609C11.455 9.00867 11.6673 9.25426 11.6673 9.54359V11.083C11.6673 11.1597 11.6522 11.2356 11.6229 11.3064C11.5935 11.3772 11.5505 11.4415 11.4963 11.4957C11.442 11.5499 11.3777 11.5928 11.3068 11.6221C11.236 11.6514 11.1601 11.6664 11.0834 11.6663H11.0822Z" fill="#AEAEAE"/>
</svg>
