<svg width="22" height="22" viewBox="0 0 22 22" fill="none" xmlns="http://www.w3.org/2000/svg">
<g filter="url(#filter0_d_183_8097)">
<rect x="4" y="4" width="14" height="14" rx="2" fill="#F4E191" shape-rendering="crispEdges"/>
<path d="M15.4998 12.29C15.4998 12.11 15.4048 11.945 15.2548 11.845L11.4998 9.5V6.75C11.4998 6.335 11.1648 6 10.7498 6C10.3348 6 9.99982 6.335 9.99982 6.75V9.5L6.24482 11.845C6.13779 11.9132 6.05909 12.0179 6.02328 12.1396C5.98748 12.2614 5.99699 12.392 6.05005 12.5073C6.10312 12.6226 6.19615 12.7147 6.31194 12.7667C6.42772 12.8187 6.55841 12.827 6.67982 12.79L9.99982 11.75V14.5L9.09982 15.175C9.06817 15.1977 9.04253 15.2278 9.02511 15.2626C9.00768 15.2975 8.99901 15.3361 8.99982 15.375V15.67C8.99982 15.835 9.15982 15.955 9.31982 15.91L10.7498 15.5L12.1798 15.91C12.3398 15.955 12.4998 15.835 12.4998 15.67V15.375C12.5006 15.3361 12.492 15.2975 12.4745 15.2626C12.4571 15.2278 12.4315 15.1977 12.3998 15.175L11.4998 14.5V11.75L14.8198 12.79C15.1598 12.895 15.4998 12.64 15.4998 12.29Z" fill="#A5A9FF"/>
</g>
<defs>
<filter id="filter0_d_183_8097" x="0" y="0" width="22" height="22" filterUnits="userSpaceOnUse" color-interpolation-filters="sRGB">
<feFlood flood-opacity="0" result="BackgroundImageFix"/>
<feColorMatrix in="SourceAlpha" type="matrix" values="0 0 0 0 0 0 0 0 0 0 0 0 0 0 0 0 0 0 127 0" result="hardAlpha"/>
<feOffset/>
<feGaussianBlur stdDeviation="2"/>
<feComposite in2="hardAlpha" operator="out"/>
<feColorMatrix type="matrix" values="0 0 0 0 0 0 0 0 0 0 0 0 0 0 0 0 0 0 0.15 0"/>
<feBlend mode="normal" in2="BackgroundImageFix" result="effect1_dropShadow_183_8097"/>
<feBlend mode="normal" in="SourceGraphic" in2="effect1_dropShadow_183_8097" result="shape"/>
</filter>
</defs>
</svg>
