<svg width="14" height="14" viewBox="0 0 14 14" fill="none" xmlns="http://www.w3.org/2000/svg">
<path d="M13.3996 6.99961C13.3996 8.69699 12.7253 10.3249 11.5251 11.5251C10.3249 12.7253 8.69699 13.3996 6.99961 13.3996C5.30222 13.3996 3.67436 12.7253 2.47413 11.5251C1.27389 10.3249 0.599609 8.69699 0.599609 6.99961C0.599609 5.30222 1.27389 3.67436 2.47413 2.47413C3.67436 1.27389 5.30222 0.599609 6.99961 0.599609C8.69699 0.599609 10.3249 1.27389 11.5251 2.47413C12.7253 3.67436 13.3996 5.30222 13.3996 6.99961ZM3.79961 6.99961C3.79961 7.1057 3.84175 7.20744 3.91677 7.28245C3.99178 7.35747 4.09352 7.39961 4.19961 7.39961H6.59961V9.79961C6.59961 9.90569 6.64175 10.0074 6.71677 10.0825C6.79178 10.1575 6.89352 10.1996 6.99961 10.1996C7.1057 10.1996 7.20744 10.1575 7.28245 10.0825C7.35747 10.0074 7.39961 9.90569 7.39961 9.79961V7.39961H9.79961C9.90569 7.39961 10.0074 7.35747 10.0825 7.28245C10.1575 7.20744 10.1996 7.1057 10.1996 6.99961C10.1996 6.89352 10.1575 6.79178 10.0825 6.71677C10.0074 6.64175 9.90569 6.59961 9.79961 6.59961H7.39961V4.19961C7.39961 4.09352 7.35747 3.99178 7.28245 3.91677C7.20744 3.84175 7.1057 3.79961 6.99961 3.79961C6.89352 3.79961 6.79178 3.84175 6.71677 3.91677C6.64175 3.99178 6.59961 4.09352 6.59961 4.19961V6.59961H4.19961C4.09352 6.59961 3.99178 6.64175 3.91677 6.71677C3.84175 6.79178 3.79961 6.89352 3.79961 6.99961Z" fill="#666DFF"/>
</svg>
