<svg width="20" height="20" viewBox="0 0 20 20" fill="none" xmlns="http://www.w3.org/2000/svg">
<circle cx="10" cy="10" r="10" fill="#FFA500"/>
<path d="M13 9.5C13.745 9.5 14.435 9.735 15 10.13V8C15 7.445 14.555 7 14 7H12V6C12 5.445 11.555 5 11 5H9C8.445 5 8 5.445 8 6V7H6C5.445 7 5.005 7.445 5.005 8L5 13.5C5 14.055 5.445 14.5 6 14.5H9.84C9.58632 13.9668 9.47179 13.378 9.50707 12.7885C9.54236 12.1991 9.72631 11.6281 10.0418 11.129C10.3573 10.6298 10.794 10.2186 11.3113 9.93379C11.8285 9.64895 12.4095 9.49972 13 9.5ZM9 6H11V7H9V6Z" fill="#040A80"/>
<path d="M13 10.5C11.62 10.5 10.5 11.62 10.5 13C10.5 14.38 11.62 15.5 13 15.5C14.38 15.5 15.5 14.38 15.5 13C15.5 11.62 14.38 10.5 13 10.5ZM13.825 14.175L12.75 13.1V11.5H13.25V12.895L14.175 13.82L13.825 14.175Z" fill="#040A80"/>
</svg>
