<svg width="27" height="12" viewBox="0 0 27 12" fill="none" xmlns="http://www.w3.org/2000/svg">
<path d="M8.81836 5.70898V6.33789C8.81836 7.08529 8.72493 7.75521 8.53809 8.34766C8.35124 8.9401 8.08236 9.44368 7.73145 9.8584C7.38053 10.2731 6.95898 10.5898 6.4668 10.8086C5.97917 11.0273 5.43229 11.1367 4.82617 11.1367C4.23828 11.1367 3.69824 11.0273 3.20605 10.8086C2.71842 10.5898 2.2946 10.2731 1.93457 9.8584C1.5791 9.44368 1.30339 8.9401 1.10742 8.34766C0.911458 7.75521 0.813477 7.08529 0.813477 6.33789V5.70898C0.813477 4.96159 0.90918 4.29395 1.10059 3.70605C1.29655 3.11361 1.57227 2.61003 1.92773 2.19531C2.2832 1.77604 2.70475 1.45703 3.19238 1.23828C3.68457 1.01953 4.22461 0.910156 4.8125 0.910156C5.41862 0.910156 5.96549 1.01953 6.45312 1.23828C6.94531 1.45703 7.36686 1.77604 7.71777 2.19531C8.07324 2.61003 8.3444 3.11361 8.53125 3.70605C8.72266 4.29395 8.81836 4.96159 8.81836 5.70898ZM7.5127 6.33789V5.69531C7.5127 5.10286 7.45117 4.57878 7.32812 4.12305C7.20964 3.66732 7.03418 3.28451 6.80176 2.97461C6.56934 2.66471 6.28451 2.43001 5.94727 2.27051C5.61458 2.111 5.23633 2.03125 4.8125 2.03125C4.40234 2.03125 4.03092 2.111 3.69824 2.27051C3.37012 2.43001 3.08757 2.66471 2.85059 2.97461C2.61816 3.28451 2.43815 3.66732 2.31055 4.12305C2.18294 4.57878 2.11914 5.10286 2.11914 5.69531V6.33789C2.11914 6.9349 2.18294 7.46354 2.31055 7.92383C2.43815 8.37956 2.62044 8.76465 2.85742 9.0791C3.09896 9.389 3.38379 9.6237 3.71191 9.7832C4.0446 9.94271 4.41602 10.0225 4.82617 10.0225C5.25456 10.0225 5.63509 9.94271 5.96777 9.7832C6.30046 9.6237 6.58073 9.389 6.80859 9.0791C7.04102 8.76465 7.21647 8.37956 7.33496 7.92383C7.45345 7.46354 7.5127 6.9349 7.5127 6.33789ZM16.4883 1.04688H17.8008V7.78027C17.8008 8.52767 17.6344 9.14974 17.3018 9.64648C16.9691 10.1432 16.527 10.5169 15.9756 10.7676C15.4287 11.0137 14.834 11.1367 14.1914 11.1367C13.5169 11.1367 12.9062 11.0137 12.3594 10.7676C11.8171 10.5169 11.3864 10.1432 11.0674 9.64648C10.7529 9.14974 10.5957 8.52767 10.5957 7.78027V1.04688H11.9014V7.78027C11.9014 8.2998 11.9971 8.72819 12.1885 9.06543C12.3799 9.40267 12.6465 9.65332 12.9883 9.81738C13.3346 9.98145 13.7357 10.0635 14.1914 10.0635C14.6517 10.0635 15.0527 9.98145 15.3945 9.81738C15.7409 9.65332 16.0098 9.40267 16.2012 9.06543C16.3926 8.72819 16.4883 8.2998 16.4883 7.78027V1.04688ZM23.5498 1.04688V11H22.251V1.04688H23.5498ZM26.749 1.04688V2.12695H19.0586V1.04688H26.749Z" fill="white"/>
</svg>
