<svg width="14" height="14" viewBox="0 0 14 14" fill="none" xmlns="http://www.w3.org/2000/svg">
<path fill-rule="evenodd" clip-rule="evenodd" d="M8.636 1.5C8.636 1.36739 8.58332 1.24021 8.48955 1.14645C8.39579 1.05268 8.26861 1 8.136 1H1.5C1.10218 1 0.720644 1.15804 0.43934 1.43934C0.158035 1.72064 0 2.10218 0 2.5V12.5C0 12.8978 0.158035 13.2794 0.43934 13.5607C0.720644 13.842 1.10218 14 1.5 14H11.5C11.8978 14 12.2794 13.842 12.5607 13.5607C12.842 13.2794 13 12.8978 13 12.5V5.864C13 5.73139 12.9473 5.60421 12.8536 5.51045C12.7598 5.41668 12.6326 5.364 12.5 5.364C12.3674 5.364 12.2402 5.41668 12.1464 5.51045C12.0527 5.60421 12 5.73139 12 5.864V12.5C12 12.6326 11.9473 12.7598 11.8536 12.8536C11.7598 12.9473 11.6326 13 11.5 13H1.5C1.36739 13 1.24021 12.9473 1.14645 12.8536C1.05268 12.7598 1 12.6326 1 12.5V2.5C1 2.36739 1.05268 2.24021 1.14645 2.14645C1.24021 2.05268 1.36739 2 1.5 2H8.136C8.26861 2 8.39579 1.94732 8.48955 1.85355C8.58332 1.75979 8.636 1.63261 8.636 1.5Z" fill="black"/>
<path fill-rule="evenodd" clip-rule="evenodd" d="M4 9.49965C4 9.63226 4.05268 9.75944 4.14645 9.85321C4.24021 9.94698 4.36739 9.99965 4.5 9.99965H9.5C9.63261 9.99965 9.75979 9.94698 9.85355 9.85321C9.94732 9.75944 10 9.63226 10 9.49965C10 9.36705 9.94732 9.23987 9.85355 9.1461C9.75979 9.05233 9.63261 8.99965 9.5 8.99965H5.707L13.854 0.853655C13.9005 0.807167 13.9374 0.751978 13.9625 0.691238C13.9877 0.630499 14.0006 0.565399 14.0006 0.499655C14.0006 0.433911 13.9877 0.368811 13.9625 0.308072C13.9374 0.247332 13.9005 0.192143 13.854 0.145655C13.8075 0.0991672 13.7523 0.0622908 13.6916 0.0371317C13.6308 0.0119726 13.5657 -0.000976563 13.5 -0.000976562C13.4343 -0.000976563 13.3692 0.0119726 13.3084 0.0371317C13.2477 0.0622908 13.1925 0.0991672 13.146 0.145655L5 8.29265V4.49966C5 4.36705 4.94732 4.23987 4.85355 4.1461C4.75979 4.05233 4.63261 3.99966 4.5 3.99966C4.36739 3.99966 4.24021 4.05233 4.14645 4.1461C4.05268 4.23987 4 4.36705 4 4.49966V9.49965Z" fill="black"/>
</svg>
