<svg width="14" height="14" viewBox="0 0 14 14" fill="none" xmlns="http://www.w3.org/2000/svg">
<path fill-rule="evenodd" clip-rule="evenodd" d="M5.364 12.5C5.364 12.6326 5.41668 12.7598 5.51045 12.8536C5.60421 12.9473 5.73139 13 5.864 13H12.5C12.8978 13 13.2794 12.842 13.5607 12.5607C13.842 12.2794 14 11.8978 14 11.5V1.5C14 1.10218 13.842 0.720644 13.5607 0.43934C13.2794 0.158035 12.8978 0 12.5 0H2.5C2.10218 0 1.72064 0.158035 1.43934 0.43934C1.15804 0.720644 1 1.10218 1 1.5V8.136C1 8.26861 1.05268 8.39579 1.14645 8.48955C1.24021 8.58332 1.36739 8.636 1.5 8.636C1.63261 8.636 1.75979 8.58332 1.85355 8.48955C1.94732 8.39579 2 8.26861 2 8.136V1.5C2 1.36739 2.05268 1.24021 2.14645 1.14645C2.24021 1.05268 2.36739 1 2.5 1H12.5C12.6326 1 12.7598 1.05268 12.8536 1.14645C12.9473 1.24021 13 1.36739 13 1.5V11.5C13 11.6326 12.9473 11.7598 12.8536 11.8536C12.7598 11.9473 12.6326 12 12.5 12H5.864C5.73139 12 5.60421 12.0527 5.51045 12.1464C5.41668 12.2402 5.364 12.3674 5.364 12.5Z" fill="black"/>
<path fill-rule="evenodd" clip-rule="evenodd" d="M9.99965 4.5C9.99965 4.36739 9.94698 4.24021 9.85321 4.14645C9.75944 4.05268 9.63226 4 9.49965 4H4.49966C4.36705 4 4.23987 4.05268 4.1461 4.14645C4.05233 4.24021 3.99966 4.36739 3.99966 4.5C3.99966 4.63261 4.05233 4.75979 4.1461 4.85355C4.23987 4.94732 4.36705 5 4.49966 5H8.29265L0.145655 13.146C0.0517685 13.2399 -0.000976562 13.3672 -0.000976562 13.5C-0.000976562 13.6328 0.0517685 13.7601 0.145655 13.854C0.239542 13.9479 0.366879 14.0006 0.499655 14.0006C0.632431 14.0006 0.759768 13.9479 0.853655 13.854L8.99965 5.707V9.5C8.99965 9.63261 9.05233 9.75979 9.1461 9.85355C9.23987 9.94732 9.36705 10 9.49965 10C9.63226 10 9.75944 9.94732 9.85321 9.85355C9.94698 9.75979 9.99965 9.63261 9.99965 9.5V4.5Z" fill="black"/>
</svg>
