<svg width="31" height="32" viewBox="0 0 31 32" fill="none" xmlns="http://www.w3.org/2000/svg">
<path d="M0.375977 4C0.375977 1.79086 2.16684 0 4.37598 0H30.376V32H4.37598C2.16684 32 0.375977 30.2091 0.375977 28V4Z" fill="#666DFF"/>
<path d="M20.626 10H19.126V9.25C19.126 9.05109 19.047 8.86032 18.9063 8.71967C18.7657 8.57902 18.5749 8.5 18.376 8.5C18.1771 8.5 17.9863 8.57902 17.8456 8.71967C17.705 8.86032 17.626 9.05109 17.626 9.25V10H13.126V9.25C13.126 9.05109 13.047 8.86032 12.9063 8.71967C12.7657 8.57902 12.5749 8.5 12.376 8.5C12.1771 8.5 11.9863 8.57902 11.8456 8.71967C11.705 8.86032 11.626 9.05109 11.626 9.25V10H10.126C9.52924 10 8.95694 10.2371 8.53499 10.659C8.11303 11.081 7.87598 11.6533 7.87598 12.25V21.25C7.87598 21.8467 8.11303 22.419 8.53499 22.841C8.95694 23.2629 9.52924 23.5 10.126 23.5H20.626C21.2227 23.5 21.795 23.2629 22.217 22.841C22.6389 22.419 22.876 21.8467 22.876 21.25V12.25C22.876 11.6533 22.6389 11.081 22.217 10.659C21.795 10.2371 21.2227 10 20.626 10ZM21.376 21.25C21.376 21.4489 21.297 21.6397 21.1563 21.7803C21.0157 21.921 20.8249 22 20.626 22H10.126C9.92706 22 9.7363 21.921 9.59565 21.7803C9.45499 21.6397 9.37598 21.4489 9.37598 21.25V16H21.376V21.25ZM21.376 14.5H9.37598V12.25C9.37598 12.0511 9.45499 11.8603 9.59565 11.7197C9.7363 11.579 9.92706 11.5 10.126 11.5H11.626V12.25C11.626 12.4489 11.705 12.6397 11.8456 12.7803C11.9863 12.921 12.1771 13 12.376 13C12.5749 13 12.7657 12.921 12.9063 12.7803C13.047 12.6397 13.126 12.4489 13.126 12.25V11.5H17.626V12.25C17.626 12.4489 17.705 12.6397 17.8456 12.7803C17.9863 12.921 18.1771 13 18.376 13C18.5749 13 18.7657 12.921 18.9063 12.7803C19.047 12.6397 19.126 12.4489 19.126 12.25V11.5H20.626C20.8249 11.5 21.0157 11.579 21.1563 11.7197C21.297 11.8603 21.376 12.0511 21.376 12.25V14.5Z" fill="white"/>
</svg>
