<svg width="12" height="10" viewBox="0 0 12 10" fill="none" xmlns="http://www.w3.org/2000/svg">
<path d="M9.49935 2.08268C9.49935 1.77326 9.37643 1.47652 9.15764 1.25772C8.93885 1.03893 8.6421 0.916016 8.33268 0.916016H1.33268C1.02326 0.916016 0.726517 1.03893 0.507724 1.25772C0.288932 1.47652 0.166016 1.77326 0.166016 2.08268V7.91602C0.166016 8.22544 0.288932 8.52218 0.507724 8.74097C0.726517 8.95977 1.02326 9.08268 1.33268 9.08268H8.33268C8.6421 9.08268 8.93885 8.95977 9.15764 8.74097C9.37643 8.52218 9.49935 8.22544 9.49935 7.91602V5.97177L11.8327 7.91602V2.08268L9.49935 4.02693V2.08268ZM7.16602 5.58268H5.41602V7.33268H4.24935V5.58268H2.49935V4.41602H4.24935V2.66602H5.41602V4.41602H7.16602V5.58268Z" fill="#F28181"/>
</svg>
