<svg width="20" height="20" viewBox="0 0 20 20" fill="none" xmlns="http://www.w3.org/2000/svg">
<g clip-path="url(#clip0_183_19093)">
<path d="M10.0002 1.11133C8.24217 1.11133 6.52359 1.63265 5.06182 2.60938C3.60005 3.5861 2.46074 4.97435 1.78796 6.59859C1.11518 8.22282 0.93915 10.0101 1.28213 11.7344C1.62511 13.4586 2.47169 15.0425 3.71483 16.2856C4.95796 17.5287 6.54181 18.3753 8.26609 18.7183C9.99036 19.0613 11.7776 18.8853 13.4019 18.2125C15.0261 17.5397 16.4143 16.4004 17.3911 14.9386C18.3678 13.4768 18.8891 11.7583 18.8891 10.0002C18.8891 7.64274 17.9526 5.38181 16.2856 3.71482C14.6186 2.04783 12.3577 1.11133 10.0002 1.11133V1.11133ZM13.4447 12.878C13.4043 12.9391 13.3523 12.9916 13.2916 13.0325C13.2308 13.0733 13.1627 13.1018 13.0909 13.1163C13.0191 13.1308 12.9452 13.1309 12.8734 13.1167C12.8016 13.1025 12.7333 13.0742 12.6724 13.0336L9.39467 10.8113V5.97244C9.39467 5.8251 9.4532 5.68379 9.55738 5.5796C9.66157 5.47542 9.80288 5.41688 9.95022 5.41688C10.0976 5.41688 10.2389 5.47542 10.3431 5.5796C10.4472 5.68379 10.5058 5.8251 10.5058 5.97244V10.2224L13.2836 12.1058C13.3451 12.1457 13.3981 12.1974 13.4395 12.2579C13.4809 12.3184 13.51 12.3865 13.525 12.4583C13.5399 12.5301 13.5406 12.6042 13.5268 12.6762C13.513 12.7482 13.4851 12.8168 13.4447 12.878V12.878ZM13.2502 4.57244C12.4685 4.10128 11.5942 3.8048 10.6871 3.70334C9.78008 3.60187 8.86182 3.69783 7.99534 3.98462C7.12887 4.27141 6.33469 4.74225 5.66729 5.36484C4.9999 5.98742 4.47509 6.74702 4.12886 7.5915C3.78263 8.43599 3.62319 9.34537 3.66147 10.2573C3.69974 11.1692 3.93484 12.062 4.35062 12.8745C4.7664 13.687 5.35303 14.3999 6.07025 14.9644C6.78747 15.5289 7.61832 15.9315 8.50578 16.1447L8.33355 17.0169C7.31575 16.78 6.36147 16.325 5.53661 15.6834C4.71174 15.0418 4.03594 14.2289 3.55585 13.3007C3.07576 12.3724 2.80282 11.3511 2.75587 10.3071C2.70892 9.26319 2.88909 8.22148 3.28392 7.25392C3.67876 6.28637 4.27886 5.41603 5.04281 4.70297C5.80675 3.98992 6.71634 3.45115 7.70877 3.12384C8.70121 2.79654 9.75285 2.68851 10.7911 2.8072C11.8294 2.92589 12.8295 3.26849 13.7224 3.81133L13.2502 4.57244Z" fill="#040A80"/>
</g>
<defs>
<clipPath id="clip0_183_19093">
<rect width="20" height="20" fill="white"/>
</clipPath>
</defs>
</svg>
