<svg width="10" height="8" viewBox="0 0 10 8" fill="none" xmlns="http://www.w3.org/2000/svg">
<path d="M0.5 0.8125C0.5 0.663316 0.559263 0.520242 0.664752 0.414752C0.770242 0.309263 0.913316 0.25 1.0625 0.25H8.9375C9.08668 0.25 9.22976 0.309263 9.33525 0.414752C9.44074 0.520242 9.5 0.663316 9.5 0.8125C9.5 0.961684 9.44074 1.10476 9.33525 1.21025C9.22976 1.31574 9.08668 1.375 8.9375 1.375H1.0625C0.913316 1.375 0.770242 1.31574 0.664752 1.21025C0.559263 1.10476 0.5 0.961684 0.5 0.8125ZM0.5 3.8125C0.5 3.66332 0.559263 3.52024 0.664752 3.41475C0.770242 3.30926 0.913316 3.25 1.0625 3.25H8.9375C9.08668 3.25 9.22976 3.30926 9.33525 3.41475C9.44074 3.52024 9.5 3.66332 9.5 3.8125C9.5 3.96168 9.44074 4.10476 9.33525 4.21025C9.22976 4.31574 9.08668 4.375 8.9375 4.375H1.0625C0.913316 4.375 0.770242 4.31574 0.664752 4.21025C0.559263 4.10476 0.5 3.96168 0.5 3.8125ZM0.5 6.8125C0.5 6.66332 0.559263 6.52024 0.664752 6.41475C0.770242 6.30926 0.913316 6.25 1.0625 6.25H8.9375C9.08668 6.25 9.22976 6.30926 9.33525 6.41475C9.44074 6.52024 9.5 6.66332 9.5 6.8125C9.5 6.96168 9.44074 7.10476 9.33525 7.21025C9.22976 7.31574 9.08668 7.375 8.9375 7.375H1.0625C0.913316 7.375 0.770242 7.31574 0.664752 7.21025C0.559263 7.10476 0.5 6.96168 0.5 6.8125Z" fill="black"/>
</svg>
